<svg id="Layer_1" enable-background="new 0 0 511 511" height="512" viewBox="0 0 511 511" width="512" xmlns="http://www.w3.org/2000/svg"><g><path d="m503.5 471.529h-34.47v-140.353c0-4.142-3.358-7.5-7.5-7.5s-7.5 3.358-7.5 7.5v140.353h-58.412v-246.87c0-1.378 1.121-2.5 2.5-2.5h53.412c1.378 0 2.5 1.122 2.5 2.5v76.517c0 4.142 3.358 7.5 7.5 7.5s7.5-3.358 7.5-7.5v-76.517c0-9.649-7.85-17.5-17.5-17.5h-53.412c-9.649 0-17.5 7.851-17.5 17.5v246.871h-24.471v-192.289c0-9.649-7.851-17.5-17.5-17.5h-53.412c-9.65 0-17.5 7.851-17.5 17.5v192.289h-24.471v-137.707c0-9.649-7.85-17.5-17.5-17.5h-53.412c-9.649 0-17.5 7.851-17.5 17.5v65.582c0 4.142 3.358 7.5 7.5 7.5s7.5-3.358 7.5-7.5v-65.582c0-1.379 1.122-2.5 2.5-2.5h53.412c1.379 0 2.5 1.121 2.5 2.5v137.706h-58.412v-42.124c0-4.142-3.358-7.5-7.5-7.5s-7.5 3.358-7.5 7.5v42.124h-24.471v-83.124c0-9.649-7.85-17.5-17.5-17.5h-53.411c-9.649 0-17.5 7.851-17.5 17.5v83.124h-34.47c-4.142 0-7.5 3.358-7.5 7.5s3.358 7.5 7.5 7.5h496c4.142 0 7.5-3.358 7.5-7.5s-3.358-7.5-7.5-7.5zm-220.765-192.288c0-1.378 1.122-2.5 2.5-2.5h53.412c1.378 0 2.5 1.122 2.5 2.5v192.289h-58.412zm-225.765 109.164c0-1.378 1.122-2.5 2.5-2.5h53.412c1.379 0 2.5 1.122 2.5 2.5v83.124h-58.412z"/><path d="m80.089 281.368c.411 0 .826-.015 1.242-.043 55.312-3.842 107.325-15.913 154.596-35.878 63.652-26.884 116.347-67.408 156.729-120.509l25.278 17.576c4.98 3.713 12.568-.75 11.744-6.907l-10.477-104.368c-.341-4.457-5.054-7.736-9.353-6.509l-101.578 26.456c-6.064 1.368-7.608 10.038-2.392 13.416l25.509 17.736c-5.075 7.974-16.257 23.785-35.754 43.125-2.941 2.918-2.96 7.666-.043 10.606 2.917 2.941 7.666 2.96 10.606.043 30.057-29.815 41.405-51.615 41.873-52.528 1.713-3.342.691-7.436-2.392-9.58l-17.85-12.411 77.325-20.139 7.976 79.447-17.865-12.421c-3.346-2.326-7.933-1.556-10.337 1.732-39.298 53.77-91.393 94.621-154.835 121.416-56.977 24.064-112.91 32.169-149.798 34.732-2.155.552-2.808-3.405-.662-3.635 82.175-25.359 150.802-61.009 203.975-105.959 3.164-2.674 3.56-7.406.886-10.569-2.673-3.163-7.407-3.561-10.569-.886-51.622 43.639-118.479 78.32-198.714 103.081-8.332 2.571-13.221 10.652-11.625 19.214 1.517 8.142 8.354 13.762 16.505 13.762z"/></g></svg>