<svg id="Layer_1" enable-background="new 0 0 450 450" height="512" viewBox="0 0 450 450" width="512" xmlns="http://www.w3.org/2000/svg"><g><g><g><g><path d="m68.4 325c-1.4 0-2.8-.2-4.1-.6l-47.9-13.3c-4-1.1-7.3-3.7-9.4-7.4-2-3.6-2.5-7.9-1.4-11.9l37-128.4c2.3-8.1 10.9-12.9 19.1-10.6l47.9 13.3c4 1.1 7.4 3.7 9.4 7.4s2.5 7.9 1.4 11.9l-37 128.4c-2 6.7-8.3 11.2-15 11.2zm-1.5-10.2c2.9.8 5.9-.9 6.8-3.8l37-128.4c.4-1.4.2-2.9-.5-4.2s-1.9-2.2-3.3-2.6l-47.9-13.4c-2.9-.8-5.9.9-6.8 3.8l-37 128.4c-.4 1.4-.2 2.9.5 4.2s1.9 2.2 3.3 2.6z"/></g><g><path d="m74.8 214.5c-1.5 0-3-.2-4.5-.6-4.3-1.2-7.9-4-10.1-7.9s-2.8-8.4-1.6-12.7c2.5-8.9 11.8-14.1 20.7-11.7s14.1 11.8 11.7 20.7c-1.2 4.3-4 7.9-7.9 10.1-2.7 1.4-5.5 2.1-8.3 2.1zm-.1-23.6c-1.2 0-2.3.3-3.3.9-1.6.9-2.7 2.3-3.2 4.1-1 3.6 1.1 7.3 4.7 8.3 1.7.5 3.6.3 5.2-.6s2.7-2.3 3.2-4.1c1-3.6-1.1-7.3-4.7-8.3-.7-.2-1.3-.3-1.9-.3z"/></g><g><g><path d="m381.6 325c-6.7 0-13-4.4-14.9-11.2l-37-128.4c-1.1-4-.7-8.2 1.4-11.9s5.4-6.3 9.4-7.4l47.9-13.3c8.2-2.3 16.7 2.5 19.1 10.6l37 128.4c1.1 4 .7 8.2-1.4 11.9-2 3.6-5.4 6.3-9.4 7.4l-47.9 13.3c-1.4.4-2.8.6-4.2.6zm10.9-162.8c-.5 0-1 .1-1.5.2l-47.9 13.3c-1.4.4-2.6 1.3-3.3 2.6s-.9 2.8-.5 4.2l37 128.4c.8 2.9 3.9 4.6 6.8 3.8l47.9-13.3c1.4-.4 2.6-1.3 3.3-2.6s.9-2.8.5-4.2l-37-128.4c-.7-2.4-3-4-5.3-4z"/></g><g><path d="m374.9 214.5c-7.3 0-14.1-4.9-16.2-12.3-1.2-4.3-.6-8.8 1.5-12.7 2.2-3.9 5.8-6.7 10.1-7.9 8.9-2.5 18.2 2.8 20.7 11.7 2.5 8.9-2.8 18.2-11.7 20.7-1.4.3-2.9.5-4.4.5zm0-23.6c-.6 0-1.2.1-1.8.3-1.7.5-3.2 1.6-4.1 3.2s-1.1 3.4-.6 5.1 1.6 3.2 3.2 4.1 3.4 1.1 5.1.6c3.6-1 5.7-4.7 4.7-8.3-.8-3-3.5-5-6.5-5z"/></g></g><g><g><path d="m322.5 325.6c-2.7 0-4.9-2.1-5-4.8-.1-2.8 2-5.1 4.8-5.2.3 0 25-1.1 44.3-14.5 2.3-1.6 5.4-1 7 1.3s1 5.4-1.3 7c-21.8 15.1-48.5 16.2-49.6 16.2-.1 0-.1 0-.2 0z"/></g><g><g><g><path d="m96.9 319.8c-1.3 0-2.6-.5-3.5-1.5l-14.8-14.8c-1.9-2-1.9-5.1 0-7.1s5.1-2 7.1 0l14.8 14.8c1.9 2 1.9 5.1 0 7.1-1 1-2.3 1.5-3.6 1.5z"/></g><g><path d="m195.1 409.5c-6.5 0-13.1-2.5-18-7.5l-8.5-8.5c-1.9-2-1.9-5.1 0-7.1s5.1-2 7.1 0l8.5 8.5c6 6 15.9 6 21.9 0 2.9-2.9 4.5-6.8 4.5-10.9 0-2-.4-4-1.1-5.8-.8-1.9-1.9-3.6-3.4-5.1-1.9-2-1.9-5.1 0-7.1s5.1-2 7.1 0l19 19c6 6 15.9 6 21.9 0 2.9-2.9 4.5-6.8 4.5-11s-1.6-8-4.5-11c-2-2-2-5.1 0-7.1s5.1-2 7.1 0c4.8 4.8 7.5 11.2 7.5 18s-2.6 13.2-7.5 18c-9.9 9.9-26.1 9.9-36 0l-4.7-4.7c-.7 5.5-3.2 10.7-7.3 14.7-5.1 5.1-11.6 7.6-18.1 7.6z"/></g><g><path d="m280.3 378.8c-6.5 0-13-2.5-18-7.5l-46.6-46.6c-1.9-2-1.9-5.1 0-7.1s5.1-2 7.1 0l46.6 46.6c6 6 15.9 6 21.9 0s6-15.9 0-21.9l-46.6-46.6c-2-2-2-5.1 0-7.1s5.1-2 7.1 0l46.6 46.6c9.9 9.9 9.9 26.1 0 36-5 5.2-11.6 7.6-18.1 7.6z"/></g><g><path d="m302.3 342.9c-6.8 0-13.2-2.6-18-7.5-2-2-2-5.1 0-7.1s5.1-2 7.1 0c2.9 2.9 6.8 4.5 11 4.5s8-1.6 11-4.5c2.3-2.3 3.8-5.3 4.3-8.5.1-.8.2-1.6.2-2.5 0-4.1-1.6-8-4.5-11l-74.1-74.1c-5.4-5.4-13.3-7.4-20.6-5.4-3.8 1.1-7.1 3.1-9.8 6l-23.2 25.2c-.1 0-.1.1-.1.1-10.9 10.9-28.5 10.9-39.4 0-8.7-8.7-10.7-21.9-4.9-32.8 7.4-13.9 20.2-33.1 39.2-45 .1 0 .1-.1.2-.1 15.6-9.8 32.7-13 50.8-9.8 2.7.4 40.4 6.2 70 26.4l32-13.8c2.5-1.1 5.5.1 6.6 2.6s-.1 5.5-2.6 6.6l-34.6 14.9c-1.6.7-3.5.5-4.9-.5-28.3-20.4-67.6-26.3-68-26.3-.1 0-.1 0-.2 0-15.7-2.9-30.5 0-43.9 8.5-.1 0-.1.1-.2.1-17 10.8-28.7 28.3-35.5 41.1-3.7 7-2.4 15.4 3.1 21 6.9 6.9 18.2 7 25.2.1l23-25c3.9-4.2 8.9-7.3 14.4-8.9 10.8-3 22.5 0 30.4 7.9l74.1 74.1c4.8 4.8 7.5 11.2 7.5 18 0 1.4-.1 2.8-.3 4.1-.8 5.3-3.3 10.1-7.1 14-5 4.9-11.4 7.6-18.2 7.6z"/></g></g><g><path d="m113.7 196c-2.3 0-4.3-1.6-4.9-3.9-.6-2.7 1.1-5.4 3.8-6 32.5-7.4 69.1-6.5 70.7-6.4 2.7.1 4.9 2.3 4.9 5 0 2.8-2.3 5.1-5.1 5-1.5 0-36.9-1-68.2 6.2-.5 0-.8.1-1.2.1z"/></g></g></g><g><g><path d="m108.5 339.7c-4.9 0-9.5-1.9-13-5.4s-5.4-8.1-5.4-13 1.9-9.5 5.4-13l15.8-15.8c7.1-7.1 18.8-7.1 25.9 0 3.5 3.5 5.4 8.1 5.4 13s-1.9 9.5-5.4 13c-1.9 2-5.1 2-7.1 0-1.9-2-1.9-5.1 0-7.1 1.6-1.6 2.4-3.7 2.4-5.9s-.9-4.3-2.4-5.9c-3.3-3.3-8.5-3.3-11.8 0l-15.8 15.8c-1.6 1.6-2.4 3.7-2.4 5.9s.9 4.3 2.4 5.9c1.6 1.6 3.7 2.4 5.9 2.4s4.3-.9 5.9-2.4c1.9-2 5.1-2 7.1 0 1.9 2 1.9 5.1 0 7.1-3.4 3.5-8 5.4-12.9 5.4z"/></g><g><path d="m121.8 364.2c-4.7 0-9.4-1.8-13-5.4-3.5-3.5-5.4-8.1-5.4-13s1.9-9.5 5.4-13l21.4-21.4c7.1-7.1 18.8-7.1 25.9 0 3.5 3.5 5.4 8.1 5.4 13s-1.9 9.5-5.4 13c-1.9 2-5.1 2-7.1 0-1.9-2-1.9-5.1 0-7.1 1.6-1.6 2.4-3.7 2.4-5.9s-.9-4.3-2.4-5.9c-3.3-3.3-8.6-3.3-11.8 0l-21.3 21.5c-1.6 1.6-2.4 3.7-2.4 5.9s.9 4.3 2.4 5.9c3.3 3.3 8.5 3.3 11.8 0 1.9-2 5.1-2 7.1 0s1.9 5.1 0 7.1c-3.6 3.5-8.3 5.3-13 5.3z"/></g><g><path d="m134.4 389.3c-4.9 0-9.5-1.9-13-5.4s-5.4-8.1-5.4-13 1.9-9.5 5.4-13l27.6-27.6c7.1-7.1 18.8-7.1 25.9 0 3.5 3.5 5.4 8.1 5.4 13s-1.9 9.5-5.4 13l-27.6 27.6c-3.4 3.5-8 5.4-12.9 5.4zm27.7-54.3c-2.1 0-4.3.8-5.9 2.4l-27.7 27.6c-1.6 1.6-2.4 3.7-2.4 5.9s.9 4.3 2.4 5.9c1.6 1.6 3.7 2.4 5.9 2.4s4.3-.9 5.9-2.4l27.6-27.6c1.6-1.6 2.4-3.7 2.4-5.9s-.9-4.3-2.4-5.9c-1.6-1.6-3.7-2.4-5.8-2.4z"/></g><g><path d="m161.3 400.1c-4.9 0-9.5-1.9-13-5.4s-5.4-8.1-5.4-13 1.9-9.5 5.4-13c1.9-2 5.1-2 7.1 0 1.9 2 1.9 5.1 0 7.1-1.6 1.6-2.4 3.7-2.4 5.9s.9 4.3 2.4 5.9c1.6 1.6 3.7 2.4 5.9 2.4s4.3-.9 5.9-2.4l19.6-19.6c3.3-3.3 3.3-8.5 0-11.8s-8.5-3.3-11.8 0c-1.9 2-5.1 2-7.1 0-1.9-2-1.9-5.1 0-7.1 7.1-7.1 18.8-7.1 25.9 0s7.1 18.8 0 25.9l-19.6 19.6c-3.4 3.6-8 5.5-12.9 5.5z"/></g></g></g></g><g><path d="m275.6 193.6c-1 0-2.1-.3-3-1-2.2-1.7-2.6-4.8-1-7 14.4-18.9 21.9-41.7 21.9-65.6v-42.5l-68.5-26.6-68.5 26.6v42.5c0 22.3 6.6 43.7 19.2 61.8 1.6 2.3 1 5.4-1.3 7s-5.4 1-7-1.3c-13.7-19.8-21-43.2-21-67.5v-45.9c0-2.1 1.3-3.9 3.2-4.7l73.5-28.6c1.2-.4 2.5-.4 3.6 0l73.5 28.6c1.9.8 3.2 2.6 3.2 4.7v45.9c0 26.2-8.3 50.9-24 71.7-.8 1.3-2.3 1.9-3.8 1.9z"/></g><g><path d="m249.9 184.7c-1.2 0-2.4-.4-3.4-1.3-2-1.9-2.2-5-.3-7.1 14.1-15.4 21.9-35.4 21.9-56.3v-25l-43.1-16.8-43.1 16.8v25c0 19.9 7.1 39.2 20.1 54.3 1.8 2.1 1.6 5.3-.5 7.1s-5.3 1.6-7.1-.5c-14.5-16.9-22.5-38.5-22.5-60.8v-28.6c0-2.1 1.3-3.9 3.2-4.7l48.1-18.7c1.2-.4 2.5-.4 3.6 0l48.1 18.7c1.9.8 3.2 2.6 3.2 4.7v28.5c0 23.4-8.7 45.8-24.5 63.1-1.1 1.1-2.4 1.6-3.7 1.6z"/></g><g><path d="m215.2 152.7c-1.3 0-2.6-.5-3.5-1.5l-13.9-13.9c-1.9-1.9-1.9-5.1 0-7.1 1.9-1.9 5.1-1.9 7.1 0l10.4 10.4 30-30c2-1.9 5.1-1.9 7.1 0s2 5.1 0 7.1l-33.5 33.5c-1.1 1-2.4 1.5-3.7 1.5z"/></g></g></svg>