<svg clip-rule="evenodd" fill-rule="evenodd" stroke-linejoin="round" stroke-miterlimit="2" viewBox="0 0 510 510" xmlns="http://www.w3.org/2000/svg"><path d="m325.178 465.255c-27.046 18.32-58.035 31.397-91.597 37.611-.963.179-1.951.179-2.914 0-114.523-21.218-199.117-122.474-199.117-239.21v-166.172c0-3.201 1.908-6.093 4.85-7.353l192.575-82.485c2.011-.861 4.287-.861 6.299 0l192.641 82.484c2.943 1.26 4.851 4.153 4.851 7.354v166.172c0 11.961-.887 23.759-2.604 35.325 28.875 17.187 48.288 48.727 48.288 84.654 0 54.207-44.193 98.4-98.4 98.4-20.288 0-39.177-6.191-54.872-16.78zm89.84-173.611c1.155-9.194 1.748-18.537 1.748-27.988v-160.895l-184.641-79.058-184.575 79.058v160.895c0 108.565 78.321 202.794 184.576 223.203 29.102-5.587 56.106-16.707 79.978-32.138-18.764-17.935-30.48-43.184-30.48-71.086 0-9.417 1.334-18.533 3.824-27.168h-59.057c-27.473 0-44.019-7.732-61.175-13.802v4.02c0 8.747-7.145 15.892-15.891 15.892h-31.979c-8.714 0-15.891-7.145-15.891-15.892v-138.111c0-8.746 7.177-15.891 15.891-15.891h31.979c8.653 0 15.738 6.993 15.888 15.612 5.862-.362 9.852-2.937 12.693-7.041 12.818-18.547 11.676-18.198 28.451-29.158 22.698-14.845 21.86-20.909 30.502-58.466.48-2.088 1.777-3.896 3.601-5.019s4.023-1.468 6.103-.957c18.864 4.633 27.192 18.839 29.055 35.634 1.719 15.494-2.542 33.166-7.972 45.704h57.925c14.823 0 26.949 12.11 26.949 26.932 0 5.146-1.466 9.969-4.002 14.072 8.517 4.535 14.343 13.511 14.343 23.793 0 9.145-4.607 17.256-11.617 22.128 2.563 3.54 4.289 7.719 4.882 12.241 7.664-1.926 15.678-2.95 23.924-2.95 12.306 0 24.095 2.279 34.968 6.436zm-123.388 48.823c3.901-7.944 8.842-15.292 14.644-21.865h-30.102c-4.415 0-8-3.584-8-8 0-4.415 3.585-8 8-8h48.12c4.98-3.441 10.291-6.435 15.873-8.924.124-.657.189-1.333.189-2.024 0-6.008-4.915-10.932-10.933-10.932h-53.249c-4.415 0-8-3.585-8-8 0-4.416 3.585-8 8-8h59.756c6.018 0 10.933-4.915 10.933-10.933 0-6.017-4.915-10.932-10.933-10.932h-59.756c-4.415 0-8-3.585-8-8 0-4.416 3.585-8 8-8h49.399c6.02 0 10.949-4.923 10.949-10.933 0-6.019-4.929-10.932-10.949-10.932h-71.657c-3.13 0-5.973-1.826-7.275-4.674-1.302-2.847-.823-6.192 1.225-8.56 6.32-7.306 13.828-28.895 11.852-46.706-.828-7.464-3.495-14.304-9.405-18.494-8.258 36.002-10.419 42.724-35.196 58.929l-.004.002c-14.244 9.306-13.161 9.116-24.045 24.865l-.003.005c-5.726 8.273-13.749 13.553-25.847 13.956v101.481c17.527 5.896 33.348 14.671 61.175 14.671zm88.42 125.568c45.393 0 82.4-37.008 82.4-82.4 0-45.393-37.007-82.427-82.4-82.427s-82.426 37.033-82.426 82.427c0 45.393 37.033 82.4 82.426 82.4zm-11.899-85.785 38.289-38.688.015-.015c8.317-8.36 21.891-8.4 30.251-.083 8.356 8.313 8.411 21.837.098 30.237l-.004.003c-17.84 18.002-35.546 36.113-53.467 54.034-8.355 8.355-21.923 8.355-30.278 0l-29.702-29.729c-8.352-8.351-8.366-21.869-.014-30.264l.014-.014c8.356-8.356 21.923-8.356 30.279 0zm-5.627 17-20.206-20.206c-2.109-2.109-5.532-2.111-7.644-.007-2.108 2.127-2.12 5.545-.007 7.658l29.702 29.729c2.111 2.111 5.539 2.111 7.651 0 17.903-17.903 35.59-35.995 53.412-53.979 2.1-2.122 2.101-5.538-.01-7.638-2.106-2.095-5.525-2.083-7.621.021l-43.934 44.393c-1.498 1.513-3.537 2.367-5.666 2.372-2.129.006-4.172-.838-5.677-2.343zm-245.069-188.567v137.894h31.761v-137.894z"/></svg>